<?xml version="1.0" encoding="UTF-8" standalone="no"?>
<!-- Created with Inkscape (http://www.inkscape.org/) -->

<svg
   width="158.3476mm"
   height="58.835785mm"
   viewBox="0 0 158.3476 58.835785"
   version="1.1"
   id="svg1"
   xml:space="preserve"
   xmlns:inkscape="http://www.inkscape.org/namespaces/inkscape"
   xmlns:sodipodi="http://sodipodi.sourceforge.net/DTD/sodipodi-0.dtd"
   xmlns="http://www.w3.org/2000/svg"
   xmlns:svg="http://www.w3.org/2000/svg"><sodipodi:namedview
     id="namedview1"
     pagecolor="#ffffff"
     bordercolor="#000000"
     borderopacity="0.25"
     inkscape:showpageshadow="2"
     inkscape:pageopacity="0.0"
     inkscape:pagecheckerboard="0"
     inkscape:deskcolor="#d1d1d1"
     inkscape:document-units="mm" /><defs
     id="defs1" /><g
     inkscape:label="Layer 1"
     inkscape:groupmode="layer"
     id="layer1"
     transform="translate(-31.695361,-150.52201)"><path
       style="fill:#9dbfd5;stroke:none"
       d="m 157.521,150.52202 v 0.0903 h 0.27098 l -0.27098,-0.0903 m -2.70981,0.27098 v 0.0903 l 2.43883,-0.18065 -2.43883,0.0903 m 3.97439,-0.0903 v 0.0903 c 1.19105,0.45866 3.27549,0.63777 4.51635,0.27098 -1.09839,-0.81752 -3.24383,-0.46175 -4.51635,-0.36131 m -8.03911,1.53556 c 1.57635,0.16667 3.24338,-0.34254 4.69701,-0.90327 v -0.18066 c -1.10148,-0.26223 -2.46036,0.10629 -3.52276,0.42634 -0.44317,0.13351 -0.93481,0.23678 -1.17425,0.65759 m 6.95518,-1.04552 c -0.46035,0.0582 -2.39573,0.0666 -2.4076,0.77426 -0.005,0.28076 0.39284,0.37825 0.60106,0.43024 0.70011,0.17478 1.54335,0.17394 2.25818,0.0861 0.42008,-0.0516 1.91455,-0.15451 1.99431,-0.69808 0.10145,-0.6915 -2.04169,-0.64369 -2.44595,-0.59256 m 5.87126,0.3229 c 0.567,1.10903 3.53358,1.62707 4.60669,1.17426 -0.60902,-1.19109 -3.44463,-1.45091 -4.60669,-1.17426 m 3.34211,0 v 0.0903 l 3.52275,1.08393 v -0.0903 l -3.52275,-1.08393 m -20.14294,1.62589 v 0.0903 l 4.06471,-1.44524 -1.17425,0.25795 -2.89046,1.09696 m 14.27168,-0.95164 c -1.0538,0.19007 -1.31738,0.95946 -0.27099,1.48141 0.91645,0.45713 2.25395,0.60984 3.25178,0.38361 0.88115,-0.19978 1.48839,-0.94246 0.36095,-1.44558 -0.99301,-0.44314 -2.26767,-0.61317 -3.34174,-0.41944 m -13.91038,2.39687 c 1.22749,0.29224 2.71189,-0.22754 3.79374,-0.80297 0.26125,-0.13895 1.17153,-0.61397 0.89547,-1.02684 -0.22881,-0.3422 -1.12032,-0.13076 -1.43743,-0.0553 -1.04077,0.24773 -3.00226,0.65185 -3.25178,1.88508 m 23.45493,-1.86676 0.0602,0.0301 -0.0602,-0.0301 m -16.59007,0.0999 c -0.64492,0.10151 -2.55644,0.59794 -2.46935,1.49193 0.0828,0.85034 2.0204,0.61041 2.55968,0.52014 0.65059,-0.10889 2.5689,-0.56593 2.40483,-1.5058 -0.13813,-0.79122 -1.93884,-0.59384 -2.49516,-0.50627 m -10.83925,2.76048 c 1.17476,-0.025 2.44757,-0.77853 3.43243,-1.37331 0.39827,-0.24051 0.91102,-0.46537 0.90327,-0.97519 -1.48782,0.41908 -3.39285,1.0378 -4.3357,2.3485 m 25.35006,-2.16534 c -0.37261,0.32731 0.44224,0.95014 0.66547,1.10406 0.63583,0.43844 2.79287,1.59069 3.55586,0.95478 0.38434,-0.32031 -0.34679,-0.93515 -0.57646,-1.10051 -0.72781,-0.524 -1.81032,-0.97702 -2.70975,-1.04301 -0.2431,-0.0178 -0.73588,-0.0903 -0.93512,0.0847 m 2.92232,-0.0928 c 0.75073,1.04304 2.62741,1.89194 3.88407,2.07753 -0.74515,-1.03528 -2.61554,-1.96676 -3.88407,-2.07753 m -13.45874,0.58393 c -1.07959,0.19431 -2.57351,1.30516 -1.08385,2.21573 0.78184,0.47791 1.85278,0.39456 2.70974,0.22986 0.8378,-0.16102 2.37352,-1.07653 1.25475,-1.99082 -0.70525,-0.57635 -2.02546,-0.60869 -2.88064,-0.45477 m 7.58748,0.27718 c -1.09988,0.26777 -0.772,1.27132 -0.09,1.81344 0.89621,0.71236 2.49428,1.12808 3.61266,0.77559 1.02403,-0.32276 0.67301,-1.31443 -0.004,-1.80431 -0.9292,-0.67281 -2.38365,-1.06116 -3.51913,-0.78472 m -25.47224,3.11329 3.3421,-2.25818 -0.9936,0.45191 -2.3485,1.80627 m 7.04551,-2.0378 c -1.05865,0.15978 -2.1133,0.66986 -2.88196,1.42119 -0.46285,0.4524 -0.76954,1.28882 0.17215,1.24039 1.05599,-0.0543 2.20757,-0.66407 2.97941,-1.36306 0.61073,-0.55309 0.86424,-1.46964 -0.2696,-1.29852 m 3.61309,0.27091 c -0.92976,0.14516 -1.99542,0.53207 -2.58031,1.31657 -0.8678,1.16397 0.83185,1.365 1.58671,1.25113 0.86225,-0.13007 1.78444,-0.5166 2.30208,-1.25252 0.72054,-1.02438 -0.46914,-1.44622 -1.30848,-1.31518 m -10.74893,3.21212 c 1.32025,0.32249 3.66268,-1.64965 4.06472,-2.80014 -1.4166,-0.30289 -3.6327,1.56384 -4.06472,2.80014 m 22.6721,-2.67016 c -1.14737,0.18068 -2.26283,1.21743 -1.16449,2.29212 0.6674,0.65304 1.80545,0.84056 2.70005,0.69969 1.05047,-0.16542 2.25485,-1.14577 1.24429,-2.20151 -0.64257,-0.6713 -1.89099,-0.93026 -2.77985,-0.7903 m 10.5804,0.14707 c -0.60972,0.32187 -0.13936,1.08188 0.16267,1.43108 0.58804,0.67989 2.55653,2.336 3.57976,1.63146 0.53694,-0.3697 -0.0347,-1.13686 -0.32603,-1.44237 -0.60683,-0.63633 -2.40899,-2.15199 -3.4164,-1.62017 m 2.51703,-0.0964 c 0.4349,1.36193 2.39996,2.77204 3.79374,2.9808 -0.40689,-1.38279 -2.36153,-2.85496 -3.79374,-2.9808 m -20.77523,0.76235 c -0.75875,0.0847 -1.62593,0.31561 -2.10888,0.9623 -0.83127,1.11312 0.48387,1.84129 1.47659,1.74221 0.78585,-0.0784 1.64386,-0.35518 2.12143,-1.02837 0.76949,-1.08468 -0.52472,-1.78379 -1.48914,-1.67614 m 23.21406,0.14093 c 0.66455,0.94277 1.83934,1.8936 2.80014,2.52915 -0.68205,-0.96823 -1.81468,-1.87741 -2.80014,-2.52915 m -7.94878,0.13848 c -1.08677,0.26452 -0.89704,1.43884 -0.33155,2.11934 0.76629,0.92216 2.27308,1.70879 3.49293,1.31964 0.99183,-0.31641 0.72638,-1.41317 0.22324,-2.03835 -0.71079,-0.88319 -2.22382,-1.68316 -3.38462,-1.40063 m -33.3307,3.38427 c 1.14727,-0.36633 3.08764,-2.03824 3.52276,-3.16145 -1.24519,0.36641 -3.05318,1.9493 -3.52276,3.16145 m 6.3229,-1.4874 c -0.90747,0.16548 -1.7992,0.83788 -2.32097,1.5778 -0.28446,0.40339 -0.54591,1.31171 0.24386,1.24604 0.91152,-0.0758 1.93553,-0.8942 2.44392,-1.60742 0.34662,-0.48627 0.53569,-1.38098 -0.36681,-1.21642 m 15.62659,0.26959 c -2.32313,0.49474 -1.56946,3.13559 0.63228,2.66158 2.29837,-0.49481 1.53888,-3.12395 -0.63228,-2.66158 m 8.03911,-0.003 c -1.23114,0.25418 -1.51371,1.5714 -0.77769,2.48448 0.63384,0.78629 1.80509,1.09187 2.76488,0.87845 1.14057,-0.25361 1.47774,-1.42334 0.7774,-2.32222 -0.62917,-0.80752 -1.75023,-1.25015 -2.76459,-1.04071 m -20.05262,0.18065 c -0.82003,0.0889 -1.66406,0.60519 -2.1008,1.31162 -0.43024,0.69593 0.0421,1.42318 0.83622,1.3379 0.8173,-0.0878 1.65794,-0.63392 2.07669,-1.3379 0.40121,-0.67451 -0.0228,-1.39722 -0.81211,-1.31162 m -9.57467,3.29882 c 1.37159,-0.46705 2.85363,-1.69366 3.16145,-3.16145 -1.25385,-0.34114 -3.5202,1.90994 -3.16145,3.16145 m 42.54406,-2.9808 c 0.0357,1.67761 1.74551,3.37117 3.25177,3.88407 0.36571,-1.45127 -1.92921,-3.6778 -3.25177,-3.88407 m -2.34355,0.25579 c -0.65144,0.21972 -0.40508,1.10601 -0.18603,1.55076 0.46792,0.95002 2.01819,2.96327 3.32224,2.38432 0.61407,-0.27262 0.25399,-1.15962 0.0397,-1.57138 -0.47014,-0.90322 -1.9256,-2.7854 -3.17587,-2.3637 m -40.8328,0.28618 -1.44523,1.71621 c 0.48542,-0.35728 1.30789,-1.12071 1.44523,-1.71621 m 45.16355,0.18065 c 0.54322,1.25902 1.68352,2.64587 2.80014,3.43243 -0.54449,-1.16475 -1.64145,-2.83094 -2.80014,-3.43243 m -47.42173,3.88407 c 1.14151,-0.56861 2.69457,-2.22158 2.89047,-3.52276 -1.21023,0.35946 -2.77865,2.25176 -2.89047,3.52276 m 16.16855,-3.20397 c -1.38401,0.31538 -2.10811,2.47815 -0.18065,2.08575 1.38784,-0.28254 2.00996,-2.5026 0.18065,-2.08575 m 23.75965,0.10957 c -0.76536,0.30797 -0.66255,1.30775 -0.41232,1.92014 0.44985,1.10091 1.987,2.5187 3.29881,2.01048 0.81091,-0.31417 0.72251,-1.36357 0.42271,-2.01048 -0.50392,-1.0874 -1.98204,-2.45416 -3.3092,-1.92014 m -10.9332,1.42593 c -2.03776,0.17861 -1.71137,2.89594 0.27098,2.7227 2.03128,-0.1775 1.69861,-2.89534 -0.27098,-2.7227 m -28.81434,0.31356 c -0.87952,0.95555 -1.89309,2.25783 -2.25818,3.52276 h 0.0903 c 0.61014,-0.85186 2.1785,-2.44316 2.16785,-3.52276 m 36.49214,0.59012 c -0.99997,0.24308 -1.16919,1.37964 -0.81698,2.21002 0.4072,0.96002 1.50264,1.55615 2.5332,1.31929 0.93264,-0.21436 1.1454,-1.25117 0.85273,-2.04191 -0.36982,-0.99917 -1.49573,-1.74828 -2.56895,-1.4874 m -31.43557,0.19397 c -0.75687,0.0654 -1.50253,1.0121 -1.77197,1.65474 -0.12095,0.28849 -0.24333,0.96123 0.24799,0.96091 0.76168,-4.9e-4 1.6094,-1.04948 1.86675,-1.68353 0.13489,-0.33234 0.18613,-0.97783 -0.34277,-0.93212 m 15.1767,-0.0111 c -1.12841,0.12834 -1.50967,1.88912 -0.18066,1.72283 1.10785,-0.13861 1.53009,-1.87631 0.18066,-1.72283 m -20.05262,3.47236 c 0.94442,-0.22391 1.59426,-1.18232 2.03752,-1.98719 0.12521,-0.22735 0.4642,-0.86131 0.16483,-1.07744 -0.31093,-0.22449 -0.82259,0.27405 -1.02677,0.46083 -0.6702,0.61307 -1.38075,1.65981 -1.17558,2.6038 m 48.50565,-2.89046 c -0.28614,1.54229 1.04132,4.11745 2.61948,4.51635 0.42112,-1.42464 -1.07297,-4.34839 -2.61948,-4.51635 m -40.4666,0.31886 c -0.53883,0.1215 -0.99993,0.522 -1.20555,1.03604 -0.16472,0.41179 -0.0592,0.97699 0.48439,0.90251 0.58482,-0.0801 1.10974,-0.54753 1.33288,-1.08316 0.22761,-0.54635 0.0112,-0.99585 -0.61172,-0.85539 m 42.18281,0.0424 c 0.19848,1.34381 1.17241,3.41252 2.25818,4.24538 -0.11206,-1.37004 -1.19516,-3.38554 -2.25818,-4.24538 m -3.9541,0.1845 c -0.37334,0.21321 -0.40438,0.79462 -0.36584,1.17041 0.10149,0.98967 0.78773,2.13069 1.52113,2.78313 0.32153,0.28605 0.89718,0.636 1.33329,0.37574 1.23,-0.73402 -0.46925,-3.36848 -1.15528,-3.91034 -0.315,-0.2488 -0.91658,-0.65693 -1.3333,-0.41894 m -48.70659,3.88022 c 1.13962,-0.80329 1.82688,-2.20818 2.16785,-3.52275 l -0.0903,-0.0903 c -1.15678,0.6005 -2.07399,2.33542 -2.07752,3.61308 m 45.88755,-2.47012 c -0.65906,0.20965 -0.76331,0.97291 -0.71557,1.56685 0.0956,1.18929 1.37821,3.12585 2.78774,2.55244 0.56377,-0.22935 0.56541,-0.95749 0.54238,-1.46851 -0.0517,-1.14781 -1.22113,-3.09403 -2.61455,-2.65078 m -33.33208,7.34779 h 1.08392 v 0.99359 h -1.08392 v 0.9936 h 1.08392 c 0,0.46093 0.38654,1.81645 1.08142,0.9391 0.1751,-0.22108 0.0928,-0.67469 0.0928,-0.9391 h -1.17425 v -0.9936 h 1.17425 v -0.99359 h -1.17425 v -0.90328 h 1.08393 v -3.79373 h 1.3549 l 0.0903,7.6778 h 1.62589 v -6.05192 l 0.36131,-1.44523 -0.36131,0.0903 c 0.24175,-0.3729 0.84854,-0.30873 1.26458,-0.36131 l 0.0903,3.79374 c 0.76533,8e-5 1.08102,0.0769 1.08393,0.90327 l -1.08393,0.0903 c -0.0175,0.85346 0.12947,1.18539 1.08393,0.90327 v 1.08392 h -1.08393 v 0.9936 h 1.08393 v -0.9936 h 1.08392 v -1.08392 h -1.08392 v -0.90327 l 1.08392,-0.0903 -0.0903,-6.86486 c -1.98644,0 -4.17539,0.26261 -6.14092,-0.013 -0.73853,-0.10354 -0.96042,-0.13134 -1.71754,-0.007 -0.24316,0.0399 -0.63538,-0.056 -0.81044,0.16504 -0.32302,0.40783 -0.0853,1.62981 -0.0283,2.11335 0.18025,1.52767 0.0258,3.15856 0.0258,4.69701 m 10.0263,-6.95519 v 7.22617 c 0,0.57904 -0.27249,2.10373 0.0928,2.56498 0.29837,0.37672 1.71352,0.14483 2.16535,0.14483 l -0.0903,-10.02631 -2.16785,0.0903 m 5.96159,2.16785 v 4.69701 h 1.08393 c -6.2e-4,0.80369 -0.18992,0.99298 -0.9936,0.9936 v 0.99359 h 0.9936 v 0.9936 h 1.08392 v -0.9936 l -1.08392,-0.0903 c 0.003,-0.8264 0.3186,-0.90319 1.08392,-0.90327 v -1.08393 h -1.08392 v -0.90327 c 0.44439,0.31217 1.24882,0.70624 1.39623,-0.181 0.0588,-0.35378 -0.25093,-0.65178 -0.29928,-0.99325 -0.11916,-0.84165 -0.013,-1.76928 -0.013,-2.61949 0.47729,0 2.03367,0.24952 2.346,-0.14483 0.30619,-0.38659 0.0928,-1.54236 0.0928,-2.02302 h -4.87766 c -0.55419,0 -1.54707,-0.19238 -2.04881,0.0545 -0.45437,0.22357 -0.54306,1.82889 -0.0883,2.11083 0.5368,0.33282 1.78574,0.0928 2.4081,0.0928 m -28.63369,-1.80654 c -0.76581,1.13611 -1.34217,2.38593 -1.71621,3.70341 0.70095,-0.45773 1.90819,-2.86251 1.71621,-3.70341 m 34.86661,0.13849 c -1.58684,0.38789 -0.79484,2.87111 0.72227,2.52281 1.7016,-0.39065 0.94903,-2.93135 -0.72227,-2.52281 m 7.58748,1.71976 c -1.78009,0.51694 -0.45125,3.91517 1.35092,3.32176 1.76282,-0.58046 0.44832,-3.84426 -1.35092,-3.32176 m -38.30433,0.48036 c -0.53125,0.13202 -0.92624,0.87171 -1.03041,1.3648 -0.0519,0.24574 -0.0359,0.66443 0.31838,0.63041 0.56649,-0.0544 0.98718,-0.85866 1.05932,-1.35303 0.0363,-0.24861 0.0335,-0.73682 -0.34729,-0.64218 m -3.60779,2.81003 c 0.99225,-0.27869 1.65413,-1.83943 1.44523,-2.80014 -1.13035,0.31748 -1.44512,1.78742 -1.44523,2.80014 m 54.91887,2.34851 c 0.55048,-1.12458 0.0272,-2.74497 -0.52253,-3.79374 -0.17211,-0.32835 -0.60089,-1.12333 -1.07597,-1.00879 -0.4382,0.10564 -0.29639,1.06696 -0.24282,1.3701 0.20846,1.17966 0.66821,2.8853 1.84132,3.43243 m -0.18066,-4.78734 c -0.29376,1.16269 0.59775,3.96102 1.53556,4.69701 -0.0296,-1.43362 -0.52229,-3.63811 -1.53556,-4.69701 m -47.87335,0.45164 c -0.41627,0.0754 -1.62831,0.95964 -0.9391,1.43875 0.71268,0.49543 1.03543,-1.02921 0.9391,-1.43875 m -8.85206,3.25177 h 0.18065 c 0.5605,-1.00691 1.1644,-1.97033 1.17426,-3.16145 -0.91227,0.28056 -1.59239,2.29741 -1.35491,3.16145 m 53.12181,-2.97438 c -1.1379,0.55908 -0.2093,3.06833 0.27098,3.78726 0.25024,0.37457 0.72617,0.88207 1.23579,0.66783 0.3946,-0.16588 0.46001,-0.75126 0.46962,-1.1194 0.0246,-0.94375 -0.21518,-1.93308 -0.77886,-2.70947 -0.2352,-0.32394 -0.74842,-0.84688 -1.19753,-0.62622 m -53.57345,1.43882 -0.99359,3.43243 h 0.0903 c 0.38984,-0.82366 1.27968,-2.52699 0.90327,-3.43243 m 11.92318,0.90327 c 0.439,-0.0694 0.58418,-0.2922 0.63229,-0.72261 -0.44467,0.0694 -0.59896,0.28197 -0.63229,0.72261 m 38.84428,-0.65424 c -1.54014,0.57705 -0.45663,4.53661 1.16923,3.94149 1.5813,-0.5788 0.488,-4.56242 -1.16923,-3.94149 m -10.56827,0.35998 c -1.18755,0.47575 -0.46545,2.62337 0.80541,2.11042 1.19218,-0.48119 0.45864,-2.61681 -0.80541,-2.11042 m -16.35283,0.11361 -0.0903,0.18065 h 0.18065 l -0.0903,-0.18065 m -24.99049,2.13774 0.0301,0.0602 -0.0301,-0.0602 m 16.98149,0 0.0301,0.0602 -0.0301,-0.0602 m 31.58472,0.0822 c -1.35235,0.18636 -1.0864,3.09396 0.36096,2.91396 1.41926,-0.17651 1.12844,-3.1192 -0.36096,-2.91396 m -48.65654,0.27914 0.0301,0.0602 -0.0301,-0.0602 m 3.04101,-0.0602 c -0.60923,0.66952 -0.88866,1.45093 -0.72262,2.3485 0.83199,-0.24473 1.14207,-1.64827 0.72262,-2.3485 m 56.90606,0.27098 c -0.11705,1.48301 -0.0779,3.43412 0.63229,4.78734 h 0.0903 c 0.0923,-1.16894 0.032,-2.2698 -0.15843,-3.43243 -0.0779,-0.4759 -0.13627,-1.07215 -0.56419,-1.35491 m -1.26458,0.0903 c -0.46621,1.21029 -0.43171,2.46663 -0.0297,3.70341 0.15944,0.49051 0.30941,1.01639 0.84264,1.17425 0.48712,-1.2649 0.68354,-4.163 -0.81295,-4.87766 m -58.77282,0.15054 0.0301,0.0602 -0.0301,-0.0602 m 1.41512,0.12044 c -0.55407,0.779 -0.80643,1.85882 -0.63229,2.80014 h 0.0903 c 0.335,-0.80575 0.91266,-1.91673 0.54196,-2.80014 m 5.60028,1.53556 c 0.51469,-0.18457 0.62022,-0.57058 0.63229,-1.08393 -0.55012,0.15824 -0.62756,0.56134 -0.63229,1.08393 m 49.68966,-0.62581 c -0.9233,0.45244 -0.58612,2.68743 -0.28701,3.42595 0.15217,0.37573 0.51027,0.95467 0.9959,0.71836 1.01802,-0.49534 0.6729,-2.52584 0.35454,-3.33785 -0.14806,-0.37764 -0.56452,-1.05094 -1.06343,-0.80646 m -27.8305,0.0838 -0.0903,0.3613 0.0903,-0.3613 m 8.05967,0.18358 c -0.50697,0.30086 -0.18153,1.24753 0.39552,0.88375 0.48686,-0.30691 0.1883,-1.23022 -0.39552,-0.88375 m -36.78369,0.17772 -0.36131,2.70982 h -0.63229 c 0.0106,0.8949 0.80315,0.99091 1.15774,1.71621 0.24065,0.49224 0.0349,1.41785 0.10684,1.9872 h 0.0903 l 0.27098,-1.35491 h 0.0903 c 0.40289,1.10718 1.03865,2.15893 1.49722,3.25178 1.48795,3.54598 2.99906,7.0886 4.42827,10.65859 0.47259,1.18048 0.98645,2.34405 1.4632,3.52276 0.14579,0.36044 0.31208,1.11724 0.68597,1.30075 2.23124,1.09507 2.69214,-1.89976 3.25456,-3.37827 1.71742,-4.51476 3.3387,-9.10842 5.23925,-13.54907 0.39229,-0.91659 0.86138,-1.86877 1.5366,-2.61133 0.49561,-0.54504 1.21527,-0.6424 1.22493,-1.45339 -1.08177,-0.009 -2.16428,-0.0903 -3.25178,-0.0903 -0.29673,0 -0.9634,-0.12243 -1.17133,0.14448 -0.35182,0.45162 0.85477,1.02652 1.03981,1.39115 0.36623,0.72166 0.11947,1.7041 -0.0878,2.43876 -1.23824,4.38866 -3.46825,8.50786 -4.92931,12.82644 -1.70105,-3.19416 -2.86229,-6.78621 -4.28344,-10.11663 -0.62729,-1.47005 -1.84922,-3.35323 -1.92955,-4.96799 -0.0382,-0.7669 0.78425,-0.95185 0.79336,-1.71621 h -6.50355 c 0.2329,-0.62079 0.68394,-2.14283 0.27098,-2.70982 m 10.20696,0.81295 -0.18065,0.54196 c 0.25391,-0.14929 0.34019,-0.28086 0.18065,-0.54196 m 34.3243,2.25818 v 0.0903 c -3.88366,0.6923 -5.67527,6.28749 -2.96512,9.11495 2.88942,3.01449 7.99224,2.2771 10.81514,5.33745 1.48239,1.60709 1.02278,4.15222 -0.80451,5.287 -1.25514,0.77945 -2.83313,0.84777 -4.24537,0.50307 -2.1874,-0.53391 -4.00987,-2.11318 -5.31529,-3.89327 -0.51633,-0.70408 -1.18347,-2.73003 -2.09153,-2.80014 0.0113,1.36272 0.13702,2.80116 0.29677,4.15505 0.0491,0.41599 -0.0465,1.07994 0.20936,1.42628 0.54005,0.73101 2.01,1.05559 2.83597,1.31434 3.17034,0.99318 6.28987,0.84518 9.39402,-0.21146 l -0.54197,0.81294 c 1.01705,-0.033 1.31806,-1.2448 1.98399,-1.85853 3.6422,-3.35674 2.11774,-9.37304 -2.7066,-10.51628 l 0.0903,-1.17425 c -0.47062,0.13537 -0.59264,0.45947 -0.72261,0.90327 -1.37602,-0.53082 -2.79862,-0.9253 -4.15505,-1.51019 -1.15453,-0.49783 -2.46288,-1.14524 -3.11335,-2.28355 -1.32793,-2.32381 1.07113,-4.30342 3.20368,-4.58054 2.49311,-0.32398 4.66576,0.90426 6.31473,2.68367 0.43502,0.46944 1.40364,1.47856 1.37283,2.16785 -0.0265,0.59209 -0.40004,1.06808 -0.36744,1.71622 0.0164,0.32501 0.16686,0.94136 0.6196,0.66282 0.51804,-0.31874 0.66429,-1.1924 0.63292,-1.74675 -0.08,-1.41369 -0.262,-2.82733 -0.26255,-4.24537 -3.1e-4,-0.78864 0.15825,-1.81884 -0.279,-2.52421 -0.77115,-1.24403 -1.496,0.44578 -1.52754,1.16931 -2.7205,-0.92125 -5.65506,-0.49396 -8.40042,-0.0903 0.12466,-0.20241 0.24188,-0.39741 0.29608,-0.63243 0.12068,-0.52336 -0.26541,-1.34784 -0.90906,-0.97694 -0.76562,0.44117 -0.47929,1.60739 0.342,1.6997 M 31.695361,200.38256 v 0.45164 h 5.058317 l -0.735859,-0.9975 -0.430308,-1.44133 -0.09841,-9.21336 0.105661,-7.76813 0.404869,-1.44384 0.754049,-1.08532 h -3.70341 c -0.293221,0 -1.063509,-0.13528 -1.256773,0.14316 -0.206263,0.29715 0.438762,0.66628 0.589216,0.85211 0.506566,0.62568 0.567654,1.5711 0.576881,2.34683 0.04619,3.88283 3.49e-4,7.76906 3.49e-4,11.65219 0,1.5051 0.05625,3.01883 -0.08357,4.51636 -0.07954,0.85191 -0.317819,1.65255 -1.181013,1.98719 m 118.87045,-6.59387 -0.45163,0.0903 c 0.17423,1.37857 0.17275,2.7755 0.33552,4.15505 0.0533,0.45203 -0.0761,1.1113 0.25962,1.47799 0.73397,0.80157 2.45332,1.16991 3.46958,1.42391 3.56877,0.89196 8.5449,0.95811 10.94895,-2.35994 1.05324,-1.45367 1.3644,-3.31439 1.12881,-5.05831 -0.0752,-0.5567 -0.3912,-1.07798 -0.42557,-1.62589 -0.64211,-0.58643 -1.06097,-1.29886 -1.80654,-1.79846 -1.99593,-1.33742 -4.4776,-1.81732 -6.68421,-2.69985 -1.45017,-0.57999 -3.34082,-1.35823 -3.84405,-2.99884 -0.83955,-2.73706 2.25494,-4.30245 4.56667,-4.14696 2.96939,0.19972 5.65801,2.54969 6.77453,5.23089 l 0.54197,-0.0903 c 0,-1.1899 -0.0155,-2.43213 -0.15487,-3.61308 -0.0365,-0.30904 0.0812,-0.84449 -0.17062,-1.07619 -0.81444,-0.74924 -3.04526,-0.83393 -4.10054,-0.91875 -3.89938,-0.31342 -9.42568,0.0889 -10.346,4.8854 -0.12075,0.62932 -0.17068,1.2611 -0.0796,1.89687 0.62056,4.33198 5.3983,4.95579 8.79971,6.22804 1.51994,0.56851 3.41069,1.39895 3.95481,3.07565 1.12709,3.47305 -2.62863,5.42676 -5.5807,4.70621 -3.59825,-0.87827 -5.40076,-3.81097 -7.13584,-6.78373 m 23.30439,-13.60928 c 0.0699,0 0.0145,0.045 -0.0301,0.0301 l 0.0301,-0.0301 m 15.80724,0.96349 c -0.31888,1.54577 -0.56306,3.21403 -0.27098,4.78733 h 0.0903 c 0.33552,-1.19116 0.93866,-3.68409 0.18065,-4.78733 m -85.26877,4.51635 h 1.9872 v 8.21976 c 0,1.60255 -0.16803,3.30673 0.20198,4.87767 0.65614,2.78576 3.63811,2.83362 5.66928,1.46788 0.7941,-0.53394 1.42227,-1.23487 2.07752,-1.91952 v -0.0903 c -0.57024,-0.21632 -0.99502,0.46541 -1.44523,0.7657 -0.77957,0.51996 -1.90376,0.84079 -2.80014,0.41581 -1.35022,-0.64015 -1.26458,-2.37085 -1.26458,-3.62034 v -10.11663 h 3.43243 c 0.56107,0 1.08157,0.12292 1.3549,-0.45164 h -4.78733 v -3.88406 c -0.55132,0.0416 -0.86369,0.41287 -1.26458,0.76095 -0.73056,0.63431 -1.36055,1.37511 -2.07752,2.02386 -0.51146,0.46278 -1.05989,0.81027 -1.08393,1.55089 m 75.24477,-4.24837 c -0.85054,0.0526 -0.92829,2.19936 -0.003,2.11105 0.88608,-0.0846 0.98783,-2.17194 0.003,-2.11105 m -18.51936,0.18365 -0.0903,0.0903 v 0.0903 0.0903 l 0.27098,-0.27098 h -0.18066 m 27.36911,0 c -0.64596,1.26404 -0.93024,3.29308 -0.27098,4.60668 1.31079,-0.68143 0.8428,-3.48128 0.54196,-4.60668 h -0.27098 m -59.70621,0.81295 v 2.16785 h 0.0903 l -0.0903,-2.16785 m 39.94347,0.10621 c -0.35011,0.15617 -0.28236,0.88052 0.14287,0.69084 0.35015,-0.15619 0.28232,-0.8805 -0.14287,-0.69084 m 17.78363,0.53388 c -0.85856,0.39216 -0.78388,2.03008 -0.72227,2.79233 0.0254,0.31423 0.15413,1.03394 0.6171,0.90272 0.91318,-0.25882 0.96768,-2.17084 0.84159,-2.88991 -0.0595,-0.33921 -0.24421,-1.02996 -0.73642,-0.80514 m -49.68798,0.80514 v 0.27098 h 0.0903 l 0.0903,-0.27098 h -0.18065 m 38.42323,0.91108 c -0.33653,0.18818 -0.36129,1.08906 0.14058,0.87957 0.46789,-0.1953 0.35511,-1.15675 -0.14058,-0.87957 M 39.373164,200.8342 h 4.96799 v -0.45164 c -1.720329,-0.66656 -1.264579,-3.40347 -1.264579,-4.87766 v -5.23897 c 0,-0.54101 -0.19992,-1.58775 0.14483,-2.03556 0.322629,-0.41908 0.947305,-0.7211 1.39073,-0.99716 1.680493,-1.04619 4.190241,-1.92654 5.867636,-0.38298 0.91791,0.84467 1.076564,2.07087 1.229871,3.23505 0.196659,1.49338 0.03833,3.10053 0.03833,4.60668 0,1.46678 0.167929,3.08757 -0.224912,4.51635 -0.18976,0.69017 -0.986953,0.96289 -1.039667,1.62589 h 4.96799 v -0.45164 c -1.039903,-0.40292 -1.188369,-1.44402 -1.256494,-2.43883 -0.155181,-2.26601 -0.0081,-4.5931 -0.0081,-6.86485 0,-0.65192 -0.375246,-2.36411 0.03227,-2.85081 1.427272,-1.70462 5.089836,-3.08012 7.013176,-1.54093 1.017039,0.81391 1.351628,2.14954 1.437217,3.39814 0.108361,1.58082 0.0081,3.20261 0.0081,4.78733 0,1.42135 0.207558,3.05128 -0.220729,4.42603 -0.202423,0.64975 -0.941747,0.89299 -1.04385,1.53556 h 4.96799 c -0.04579,-0.57599 -0.601753,-0.69639 -0.865564,-1.1746 -0.329071,-0.59651 -0.345356,-1.4117 -0.390931,-2.07717 -0.203836,-2.97652 0.369336,-6.08401 -0.124199,-9.03271 -0.379312,-2.26627 -2.05006,-3.54564 -4.309913,-3.60145 -2.831432,-0.0699 -4.496168,1.82468 -6.864859,2.87883 -0.708583,-4.10201 -6.23042,-2.92536 -8.6714,-1.48106 -0.720438,0.42628 -1.369483,0.94981 -2.077523,1.39073 0,-0.5016 0.277211,-2.43689 -0.20937,-2.69782 -0.244544,-0.13114 -0.564785,0.0848 -0.784228,0.18128 -0.66194,0.29105 -1.329611,0.56895 -1.987196,0.86982 -0.209951,0.0961 -0.644916,0.2077 -0.68052,0.48334 -0.04789,0.37074 0.734473,0.73884 0.900134,1.0734 0.396584,0.80094 0.322348,1.84328 0.322348,2.70947 0,2.75045 0.279673,5.67618 -0.117439,8.40042 -0.131016,0.89879 -1.087067,1.322 -1.14714,2.07752 m 28.904669,8.49075 h 3.613083 c 0.293304,0 1.063389,0.13526 1.256773,-0.14316 0.15187,-0.21865 -0.120426,-0.39246 -0.264848,-0.50447 -0.486966,-0.37767 -0.739945,-0.91016 -0.804162,-1.52022 -0.256671,-2.43845 -0.09744,-4.95452 -0.09744,-7.40682 1.057388,0.75277 2.339174,1.14309 3.613084,1.3165 4.970504,0.6766 9.139581,-3.56923 9.009289,-8.45234 -0.119922,-4.49447 -3.11323,-8.55545 -8.015691,-7.45875 -1.733838,0.38787 -3.121346,1.30316 -4.606682,2.21977 0,-0.48129 0.243468,-1.94337 -0.14483,-2.27302 -0.241224,-0.20479 -0.615265,0.0203 -0.848768,0.12601 -0.659946,0.29887 -1.322767,0.59367 -1.987196,0.88244 -0.215825,0.0938 -0.581359,0.20344 -0.654733,0.46139 -0.07905,0.2779 0.922561,1.09993 1.037438,1.5258 0.387184,1.43539 0.159258,3.13196 0.159258,4.60668 0,4.42237 0.403426,9.05834 -0.01533,13.45874 -0.06275,0.65942 -0.09423,1.39691 -0.427728,1.98587 -0.265137,0.46823 -0.777376,0.607 -0.821516,1.17558 m 30.530555,-11.29089 c 0,0.71577 -0.19855,1.9206 0.3174,2.504 0.5805,0.65639 2.575492,0.29614 3.386012,0.29614 -0.0408,-0.51396 -0.43637,-0.61367 -0.71279,-1.00203 -0.27366,-0.38448 -0.37548,-0.88597 -0.43532,-1.34647 -0.37448,-2.88159 -0.0261,-6.03474 -0.0261,-8.94239 v -3.16144 c 0,-0.34509 0.10645,-0.92713 -0.1065,-1.22402 -0.21287,-0.29677 -0.63172,-0.0739 -0.8871,0.0372 -0.637912,0.27767 -2.228592,0.66191 -2.615232,1.24311 -0.21663,0.32564 0.25185,0.58964 0.44383,0.77329 0.42921,0.41059 0.58699,0.93733 0.62776,1.5189 0.14205,2.02673 0.008,4.11017 0.008,6.14224 0,0.70474 0.2264,1.89094 -0.0928,2.52916 -0.65834,1.31618 -2.92066,2.45249 -4.333197,2.60381 -2.003514,0.21462 -3.365715,-0.95085 -3.774706,-2.87479 -0.595545,-2.8015 -0.199686,-5.99695 -0.199686,-8.85205 0,-0.7342 0.329327,-2.52378 -0.09284,-3.13134 -0.2188,-0.31489 -0.645494,-0.0395 -0.900763,0.0728 -0.742028,0.3265 -1.97714,0.60725 -2.564563,1.16798 -0.397502,0.37944 0.641336,0.94394 0.808412,1.25858 0.568315,1.07025 0.310918,2.7139 0.310918,3.88372 0,2.40683 -0.435708,5.29432 0.733417,7.49715 2.253259,4.24553 7.731603,1.38065 10.105833,-0.9936 m 31.253167,-7.49715 c -0.002,-0.68631 -0.12831,-1.34721 -0.37977,-1.98719 -1.85758,-4.72757 -8.45059,-4.31914 -11.62565,-1.32905 -4.89574,4.61054 -2.36276,13.53597 4.5986,13.89629 0.94678,0.049 1.90427,-0.0616 2.80014,-0.38117 1.37178,-0.48937 2.60793,-1.38489 3.60954,-2.43075 0.20247,-0.21142 1.38877,-1.3463 1.10266,-1.64833 -0.1639,-0.17303 -0.4441,0.10766 -0.55715,0.20881 -0.52803,0.47245 -1.01166,0.94212 -1.62589,1.30828 -1.87192,1.11591 -4.21656,1.2755 -6.23257,0.45171 -2.33468,-0.95403 -3.54964,-3.17642 -3.92107,-5.55944 -0.0809,-0.51883 -0.29239,-1.97934 0.10406,-2.38433 0.46319,-0.47317 2.44928,-0.14483 3.09439,-0.14483 h 9.03271 m -2.52915,-0.45163 h -9.57468 c 0.19473,-1.4461 0.99099,-3.0553 2.25818,-3.84183 3.0218,-1.87561 7.03128,0.3495 7.3165,3.84183 m -51.305789,-4.03886 c 5.124618,-0.58818 6.619404,6.39193 5.953991,10.1811 -0.364335,2.07472 -1.619685,4.00417 -3.876468,4.22997 -2.640424,0.26418 -5.519589,-1.38336 -6.218488,-4.04932 -0.368735,-1.40654 -0.104408,-3.15675 -0.104408,-4.60668 v -2.70981 c 0,-0.34857 -0.08619,-0.84297 0.09284,-1.15759 0.6619,-1.16326 2.935856,-1.74803 4.152537,-1.88767 m 87.526955,0.69676 v 0.18065 l 0.18065,-0.18065 h -0.18065 m -34.05331,0.0903 0.27098,1.71622 c 0.14511,-0.52779 0.0209,-1.25173 -0.27098,-1.71622 m 59.52555,0.18066 c -0.45791,1.35346 -0.93171,2.80447 -0.9936,4.24537 h 0.0903 c 0.41079,-1.05908 1.3749,-3.12144 0.90327,-4.24537 m -0.9936,0.54196 c -0.88616,1.22351 -1.08393,2.77575 -1.08393,4.24537 0.91322,-0.55412 1.77507,-3.3331 1.08393,-4.24537 m -2.89047,4.87766 c 0.8329,-0.3917 1.12477,-1.41462 1.28215,-2.25818 0.0485,-0.25984 0.14826,-0.91398 -0.22206,-1.00879 -0.32601,-0.0835 -0.61496,0.42285 -0.74136,0.64756 -0.42698,0.75903 -0.62639,1.79787 -0.31873,2.61941 m 2.43883,0.0903 -1.44523,3.3421 h 0.0903 c 0.4475,-0.76672 1.54411,-2.44105 1.3549,-3.3421 m -0.99359,0.72262 c -0.66149,1.0719 -1.50771,2.30558 -1.53556,3.61308 h 0.0903 c 0.78669,-1.09517 1.45018,-2.25233 1.62589,-3.61308 h -0.18065 m -6.68421,0.63228 -0.27098,0.54197 c 0.23843,-0.13871 0.34487,-0.2655 0.27098,-0.54197 m 6.14224,2.07753 0.0903,0.0903 -0.0903,-0.0903 m -4.87766,2.3485 c 0.63583,-0.18008 1.0054,-0.89836 0.90327,-1.53556 -0.56583,0.31969 -0.84759,0.90174 -0.90327,1.53556 m 3.07112,0.0903 c -0.69968,0.76017 -1.58013,1.80616 -1.89687,2.80014 0.64359,-0.45715 2.04092,-1.93527 1.89687,-2.80014 m -5.69061,0.63229 -0.18065,0.45163 0.36131,-0.45163 h -0.18066 m 3.25178,1.3549 -0.18065,0.18066 z"
       id="path1" /></g></svg>
