<?xml version="1.0" encoding="UTF-8" standalone="no"?>
<!-- Created with Inkscape (http://www.inkscape.org/) -->

<svg
   width="107.4776mm"
   height="18.437284mm"
   viewBox="0 0 107.4776 18.437285"
   version="1.1"
   id="svg1"
   xml:space="preserve"
   sodipodi:docname="imputevss-logo.svg"
   inkscape:version="1.3.2 (091e20e, 2023-11-25, custom)"
   xmlns:inkscape="http://www.inkscape.org/namespaces/inkscape"
   xmlns:sodipodi="http://sodipodi.sourceforge.net/DTD/sodipodi-0.dtd"
   xmlns:xlink="http://www.w3.org/1999/xlink"
   xmlns="http://www.w3.org/2000/svg"
   xmlns:svg="http://www.w3.org/2000/svg"><sodipodi:namedview
     id="namedview1"
     pagecolor="#ffffff"
     bordercolor="#000000"
     borderopacity="0.25"
     inkscape:showpageshadow="2"
     inkscape:pageopacity="0.0"
     inkscape:pagecheckerboard="0"
     inkscape:deskcolor="#d1d1d1"
     inkscape:document-units="mm"
     inkscape:zoom="1.3322815"
     inkscape:cx="290.10386"
     inkscape:cy="94.199313"
     inkscape:window-width="1920"
     inkscape:window-height="991"
     inkscape:window-x="-9"
     inkscape:window-y="-9"
     inkscape:window-maximized="1"
     inkscape:current-layer="layer1" /><defs
     id="defs1"><linearGradient
       id="linearGradient1"
       inkscape:collect="always"><stop
         style="stop-color:#1a1a91;stop-opacity:0.11764706"
         offset="0"
         id="stop1" /><stop
         style="stop-color:#f9f9f9;stop-opacity:1"
         offset="0.34525204"
         id="stop3" /><stop
         style="stop-color:#000080;stop-opacity:0;"
         offset="1"
         id="stop2" /></linearGradient><linearGradient
       inkscape:collect="always"
       xlink:href="#linearGradient1"
       id="linearGradient2"
       x1="97.589638"
       y1="171.86044"
       x2="97.788231"
       y2="185.66273"
       gradientUnits="userSpaceOnUse"
       gradientTransform="translate(-0.42128185,-0.14042728)" /></defs><g
     inkscape:label="Layer 1"
     inkscape:groupmode="layer"
     id="layer1"
     transform="translate(-43.738487,-167.88852)"><g
       id="g9"><path
         style="fill:#054cae;stroke:none;stroke-width:0.109794"
         d="m 82.40343,167.96626 v 0.029 l 0.84244,-0.0581 -0.84244,0.029 m 1.16199,0 c 0.2962,0.22042 1.08591,0.20141 1.42342,0.0872 -0.34096,-0.20825 -1.05066,-0.19758 -1.42342,-0.0872 m -1.30723,0.029 v 0.029 h 0.11619 l -0.11619,-0.029 m -1.24913,0.43575 c 0.3637,0.0665 0.78488,-0.0378 1.13293,-0.14599 0.13848,-0.043 0.29751,-0.0742 0.37764,-0.20261 -0.39024,-0.0722 -1.23922,0.0329 -1.51057,0.3486 m 1.42342,-0.029 c 0.36458,0.17037 0.80374,0.14254 1.19103,0.0637 0.081,-0.0165 0.44432,-0.0836 0.35349,-0.2278 -0.0721,-0.11449 -0.29259,-0.1225 -0.41158,-0.126 -0.30106,-0.009 -1.02046,-0.0898 -1.13294,0.2901 m 2.64351,-0.20335 c 0.11335,0.38536 1.09794,0.48693 1.42343,0.37764 -0.19703,-0.38537 -1.04889,-0.44718 -1.42343,-0.37764 m 0.98769,0 v 0.029 l 1.22008,0.37764 c -0.27982,-0.22584 -0.86426,-0.37763 -1.22008,-0.40669 m -5.02558,0.0581 -1.27818,0.46479 v 0.029 c 0.41844,-0.0618 0.94017,-0.2559 1.30723,-0.4648 l -0.029,-0.029 m 3.25355,0.158 c -0.36407,0.0573 -0.46688,0.31962 -0.0872,0.48459 0.33577,0.14587 0.72066,0.16428 1.07484,0.0831 0.29456,-0.0675 0.29545,-0.30949 0.029,-0.43756 -0.29355,-0.1411 -0.6975,-0.1804 -1.01672,-0.13014 m -3.31164,0.14597 c -0.30348,0.0536 -0.61136,0.16497 -0.87138,0.32974 -0.23927,0.15163 -0.20597,0.32727 0.087,0.30549 0.34932,-0.026 0.72057,-0.15756 1.01671,-0.34274 0.37294,-0.2332 0.042,-0.34096 -0.23237,-0.29249 m 1.04578,0.0581 c -0.19894,0.0358 -0.75886,0.17729 -0.73942,0.45088 0.0196,0.27687 0.59217,0.21705 0.76847,0.1859 0.2118,-0.0374 0.82519,-0.16694 0.79415,-0.47293 -0.0259,-0.25554 -0.65678,-0.1938 -0.8232,-0.16385 m -3.36975,0.85799 c 0.35299,0.0359 0.78103,-0.24747 1.07483,-0.41904 0.13462,-0.0786 0.2738,-0.1513 0.31955,-0.30719 -0.45707,0.0399 -1.12444,0.35118 -1.39438,0.72623 m 9.3249,-0.029 c -0.0711,-0.3925 -0.61264,-0.57836 -0.95863,-0.65578 -0.10664,-0.0239 -0.36247,-0.10039 -0.43178,0.0293 -0.0718,0.13425 0.16817,0.29966 0.25748,0.35796 0.32368,0.21129 0.74647,0.36054 1.13293,0.26853 m -0.46479,-0.69719 c 0.16134,0.34306 0.85501,0.63828 1.22008,0.66814 -0.25834,-0.35076 -0.80615,-0.57238 -1.22008,-0.66814 m -4.12503,0.18705 c -0.099,0.0156 -0.19687,0.0407 -0.2905,0.0763 -0.30874,0.11733 -0.48994,0.42226 -0.14522,0.63734 0.19146,0.11947 0.47903,0.13736 0.69716,0.10329 0.10739,-0.0168 0.21714,-0.0403 0.31955,-0.077 0.26272,-0.0943 0.53946,-0.389 0.20207,-0.60726 -0.20233,-0.13088 -0.54957,-0.16939 -0.78306,-0.13265 m 2.35301,0.0879 c -0.34481,0.0627 -0.37618,0.36078 -0.11348,0.56961 0.28853,0.22937 0.76612,0.36157 1.13022,0.2729 0.30859,-0.0752 0.26401,-0.38718 0.0576,-0.55417 -0.27646,-0.22371 -0.72304,-0.35228 -1.07439,-0.28834 m -8.10482,1.03229 1.13293,-0.75529 -0.34859,0.14944 -0.78434,0.60585 m 2.29491,-0.68401 c -0.34416,0.0446 -0.68126,0.21046 -0.92831,0.45424 -0.10938,0.10794 -0.27463,0.38669 -0.001,0.39831 0.35142,0.0149 0.77156,-0.22963 1.01615,-0.46175 0.17075,-0.16203 0.2427,-0.43351 -0.0867,-0.3908 m 1.07484,0.0867 c -0.27461,0.0432 -0.59157,0.17103 -0.76538,0.3989 -0.25095,0.32902 0.15447,0.45654 0.41678,0.42238 0.26759,-0.0348 0.59977,-0.15208 0.77217,-0.3704 0.27572,-0.34916 -0.12535,-0.49782 -0.42357,-0.45088 m -3.3407,1.00398 c 0.40865,0.11124 1.16843,-0.50197 1.27818,-0.87148 -0.43422,-0.10851 -1.14592,0.493 -1.27818,0.87148 m 7.08808,-0.82894 c -0.35748,0.0645 -0.69247,0.40656 -0.3424,0.73045 0.22101,0.20449 0.60875,0.25499 0.89435,0.20111 0.34148,-0.0644 0.63216,-0.40584 0.31638,-0.70647 -0.20979,-0.19973 -0.58979,-0.27531 -0.86833,-0.22509 m 3.31829,0.0455 c -0.18198,0.10868 -0.0331,0.35205 0.061,0.46345 0.1752,0.20733 0.81322,0.71331 1.11673,0.50319 0.16759,-0.11602 0.0277,-0.33146 -0.0694,-0.43971 -0.18239,-0.20322 -0.80042,-0.71078 -1.1083,-0.52693 m 0.80675,-0.03 c 0.12618,0.42576 0.75105,0.89093 1.19103,0.92959 -0.13316,-0.41714 -0.74847,-0.90663 -1.19103,-0.92959 m -6.62329,0.24589 c -0.21109,0.0381 -0.46672,0.1413 -0.5784,0.33521 -0.21697,0.37676 0.24852,0.55662 0.54935,0.5049 0.23806,-0.0409 0.50888,-0.138 0.63649,-0.35987 0.22923,-0.39855 -0.31921,-0.53221 -0.60744,-0.48024 m 7.34953,0.0156 c 0.20575,0.29189 0.6119,0.64946 0.92958,0.81338 v -0.029 l -0.92958,-0.78434 m -2.38206,0.0444 c -0.40584,0.0382 -0.38442,0.42419 -0.18349,0.68139 0.24043,0.30775 0.66649,0.49133 1.05497,0.42996 0.31346,-0.0495 0.30631,-0.39242 0.15576,-0.60384 -0.21364,-0.3 -0.65048,-0.54298 -1.02724,-0.50751 m -9.4411,0.0718 c -0.37824,0.23233 -0.92507,0.57533 -1.07484,1.01674 0.32649,-0.10829 0.60119,-0.43154 0.8413,-0.66554 0.095,-0.0926 0.25288,-0.20701 0.23354,-0.3512 m 0.90053,0.53661 c -0.28964,0.0493 -0.56874,0.27294 -0.73196,0.50918 -0.0778,0.11269 -0.16969,0.40756 0.0644,0.39407 0.29204,-0.0168 0.62376,-0.28406 0.78555,-0.51029 0.1146,-0.16026 0.17175,-0.44228 -0.11797,-0.39296 m 4.88033,0.0885 c -0.73068,0.15613 -0.45426,0.99035 0.23239,0.84138 0.73093,-0.15857 0.45201,-0.98761 -0.23239,-0.84138 m 2.55636,-10e-4 c -0.39225,0.074 -0.50157,0.46314 -0.27196,0.76959 0.17509,0.23368 0.53996,0.36058 0.82389,0.30712 0.33516,-0.0631 0.54136,-0.4057 0.32964,-0.71263 -0.1862,-0.2699 -0.55819,-0.42509 -0.88157,-0.36408 m -6.33281,0.0581 c -0.24641,0.0411 -0.51381,0.19736 -0.63501,0.42214 -0.15102,0.28009 0.0815,0.44325 0.34452,0.39714 0.22897,-0.0401 0.49221,-0.21645 0.59677,-0.42619 0.11609,-0.23287 -0.0649,-0.43334 -0.30628,-0.39309 m -2.9921,1.03218 c 0.42913,-0.0669 0.97811,-0.57711 1.01673,-1.01673 -0.431,0.0101 -1.06377,0.55901 -1.01673,1.01673 m 13.33374,-0.92959 c 0.0418,0.47878 0.5699,1.16484 1.07483,1.19103 -0.0639,-0.474 -0.56849,-1.14542 -1.07483,-1.19103 m -0.74865,0.088 c -0.15922,0.0964 -0.0891,0.36307 -0.0213,0.49301 0.14188,0.2722 0.6649,0.96307 1.05385,0.72543 0.15997,-0.0977 0.0748,-0.33462 0.0129,-0.46398 -0.1255,-0.26194 -0.67392,-0.97936 -1.04538,-0.75446 m -12.75939,0.0863 -0.46479,0.55194 c 0.15105,-0.11552 0.42002,-0.36656 0.46479,-0.55194 m 14.11808,0 c 0.17518,0.40654 0.53891,0.87819 0.90054,1.13293 -0.13021,-0.41129 -0.55337,-0.88838 -0.90054,-1.13293 m -13.94378,0.14525 c -0.40015,0.25321 -0.75124,0.6489 -0.90054,1.10388 0.31684,-0.0639 0.5912,-0.47498 0.76717,-0.72624 0.0767,-0.10952 0.18072,-0.24078 0.13337,-0.37764 m 4.24123,0.10566 c -0.44227,0.0404 -0.77233,0.73772 -0.14525,0.67563 0.40385,-0.04 0.70838,-0.72712 0.14525,-0.67563 m 7.43671,0.0272 c -0.27278,0.0785 -0.26974,0.40603 -0.17782,0.62246 0.14853,0.34973 0.60155,0.77953 1.02012,0.63476 0.27683,-0.0957 0.24581,-0.41928 0.14814,-0.63476 -0.1546,-0.34109 -0.57981,-0.74071 -0.99044,-0.62246 m -3.51502,0.46186 c -0.65841,0.11638 -0.42021,0.95759 0.20335,0.84824 0.62056,-0.10882 0.37325,-0.95016 -0.20335,-0.84824 m -9.00536,0.1025 c -0.2565,0.34607 -0.57567,0.71109 -0.69719,1.13293 h 0.029 l 0.52848,-0.78434 0.13966,-0.34859 m 11.41649,0.19326 c -0.29083,0.0917 -0.32662,0.43573 -0.22197,0.67823 0.13389,0.31022 0.49331,0.52686 0.83188,0.41093 0.26506,-0.0908 0.31431,-0.40746 0.2246,-0.64333 -0.11844,-0.31139 -0.49954,-0.5514 -0.83451,-0.44583 m -9.81932,0.0563 c -0.23371,0.0369 -0.46024,0.29743 -0.54486,0.50572 -0.0445,0.10953 -0.07,0.33238 0.11023,0.30641 0.22988,-0.0331 0.46412,-0.30771 0.5489,-0.50976 0.0465,-0.1109 0.0623,-0.33027 -0.11427,-0.30237 m 4.67753,0.002 c -0.37577,0.11738 -0.29985,0.64446 0.11618,0.51401 0.36654,-0.11493 0.28694,-0.63994 -0.11618,-0.51401 m -6.18755,1.08492 c 0.29071,-0.0928 0.53015,-0.39673 0.6531,-0.66814 0.0319,-0.0704 0.11715,-0.25706 0.0265,-0.31569 -0.10099,-0.0653 -0.26172,0.0986 -0.326,0.15856 -0.21223,0.19784 -0.4422,0.5247 -0.35355,0.82527 m 15.19292,-0.92959 c -0.0942,0.39566 0.15273,0.86917 0.41207,1.16187 0.0651,0.0735 0.26513,0.30244 0.38378,0.22857 0.12101,-0.0753 0.0136,-0.36599 -0.0247,-0.46085 -0.14444,-0.35799 -0.36628,-0.82725 -0.77118,-0.92959 m -12.69465,0.10582 c -0.16756,0.0454 -0.32468,0.19498 -0.38105,0.35897 -0.0544,0.15829 0.0375,0.28497 0.20678,0.24988 0.16449,-0.0341 0.32322,-0.18078 0.38083,-0.33702 0.0602,-0.16334 -0.0168,-0.3232 -0.20656,-0.27183 m 12.00063,0.0694 c -0.17831,0.0504 -0.14846,0.32935 -0.11892,0.46387 0.0683,0.31092 0.42362,1.04009 0.84072,0.92867 0.1902,-0.0508 0.16355,-0.31798 0.13334,-0.46388 -0.0664,-0.32085 -0.42386,-1.05064 -0.85514,-0.92866 m 1.21692,-0.03 c 0.11397,0.49268 0.40047,0.93565 0.69718,1.33628 h 0.029 c -0.0343,-0.39251 -0.36929,-1.14513 -0.72623,-1.33628 m -16.50014,1.24914 c 0.33733,-0.15775 0.66031,-0.73683 0.66813,-1.10389 -0.36951,0.1257 -0.66022,0.73249 -0.66813,1.10389 m 14.38082,-0.76531 c -0.2034,0.066 -0.25133,0.31808 -0.22485,0.5039 0.0515,0.36098 0.41305,0.96882 0.86232,0.79183 0.1925,-0.0758 0.21874,-0.32365 0.19104,-0.50133 -0.0545,-0.34942 -0.38724,-0.93763 -0.82851,-0.7944 m -10.42996,2.30497 h 0.3486 v 0.31955 h -0.3486 v 0.31954 h 0.3486 v 0.31955 h 0.34859 v -0.31955 h -0.34859 v -0.31954 h 0.34859 v -0.31955 h -0.34859 v -0.29049 h 0.34859 l -0.029,-1.19103 h 0.43575 l 0.029,2.44016 0.49303,-0.0466 0.0299,-0.56346 -0.029,-1.56868 c 0.11443,-0.0347 0.14202,-0.0876 0.1162,-0.20334 l -0.1162,0.0581 v -0.1162 h 0.40669 l 0.029,1.16198 0.31955,0.029 v 0.26144 l -0.31955,0.0291 -0.029,0.29049 h 0.3486 v 0.31954 h -0.31955 v 0.31955 h 0.3486 v -0.31955 h 0.34859 l -0.029,-0.31954 h -0.34859 l 0.029,-0.29049 0.31954,-0.0291 v -2.14966 l -1.94518,-0.004 -0.23468,-0.0859 -0.3184,0.0863 -0.23159,0.0504 -0.0299,0.56347 0.029,1.56867 m 3.13735,-2.17871 v 3.1083 h 0.69719 v -2.26587 c 0,-0.18622 0.0876,-0.67656 -0.0299,-0.82491 -0.10687,-0.13492 -0.5184,-0.0206 -0.66734,-0.0175 m 1.85917,0.66814 v 1.48153 h 0.3486 v 0.31954 H 84.2337 v 0.31955 h 0.31955 v 0.29049 h 0.34859 c -3e-5,-0.27312 -0.0464,-0.31951 -0.31954,-0.31954 l -0.029,-0.2905 c 0.085,0 0.23091,0.0265 0.30201,-0.0299 0.2718,-0.21527 -0.16962,-0.31873 -0.30201,-0.31874 v -0.26145 c 0.13783,0.0867 0.37315,0.18558 0.42595,-0.0586 0.0245,-0.11327 -0.0584,-0.21062 -0.0732,-0.3191 -0.0355,-0.25952 -0.0332,-0.55099 -0.0332,-0.81338 l 0.78434,-0.029 v -0.66814 h -1.53963 c -0.17108,0 -0.47479,-0.0588 -0.62985,0.0175 -0.14174,0.0697 -0.18267,0.56446 -0.0344,0.64981 0.17701,0.1019 0.55028,0.0299 0.75141,0.0299 m -8.97631,-0.5229 c -0.25634,0.30965 -0.44162,0.74027 -0.52289,1.13294 0.20342,-0.1731 0.60358,-0.86008 0.52289,-1.13294 m 10.8936,0.0216 c -0.47793,0.18351 -0.15239,0.94632 0.31951,0.76587 0.50669,-0.19376 0.17005,-0.95385 -0.31951,-0.76587 m 2.41111,0.52289 c -0.5664,0.2173 -0.0996,1.27762 0.43456,1.05298 0.52855,-0.22229 0.1238,-1.26719 -0.43456,-1.05298 m -12.28797,0.82087 c 0.32161,-0.0955 0.44511,-0.38646 0.40669,-0.69718 -0.30021,0.0438 -0.52281,0.41645 -0.40669,0.69718 m -0.81339,0.2324 c 0.31382,-0.16416 0.464,-0.56151 0.43574,-0.90054 -0.32959,0.0926 -0.52805,0.58826 -0.43574,0.90054 m 16.67444,-0.84244 c -0.21022,0.34317 -0.0106,0.86251 0.1561,1.19104 0.052,0.10254 0.18146,0.35949 0.32967,0.32443 0.14149,-0.0335 0.0982,-0.34079 0.0825,-0.44063 -0.0623,-0.3959 -0.20339,-0.86335 -0.56824,-1.07484 m 0.43574,0.0581 c 5e-5,0.42677 0.13989,1.20375 0.49384,1.48153 -0.001,-0.43208 -0.15105,-1.18984 -0.49384,-1.48153 m -17.37163,0.14525 c -0.24952,0.27355 -0.40566,0.64522 -0.40669,1.01674 0.27592,-0.0909 0.517,-0.75388 0.40669,-1.01674 m 2.06252,0.49385 c 0.13594,-0.0152 0.52976,-0.32039 0.30202,-0.46083 -0.22238,-0.13713 -0.32443,0.334 -0.30202,0.46083 m 14.18239,-0.40473 c -0.35631,0.18975 -0.0585,0.95898 0.0968,1.18792 0.075,0.1105 0.23832,0.27765 0.38764,0.20252 0.36821,-0.18529 0.0657,-0.9616 -0.0944,-1.18792 -0.075,-0.10599 -0.2433,-0.28066 -0.39004,-0.20252 m -16.7678,0.43377 c -0.14562,0.35025 -0.28943,0.68831 -0.2905,1.07484 h 0.029 c 0.0956,-0.28248 0.38493,-0.77992 0.26144,-1.07484 m 3.74739,0.31955 c 0.13333,-0.048 0.16675,-0.12402 0.1743,-0.26145 -0.14861,0.0307 -0.2105,0.11156 -0.1743,0.26145 m 12.11671,-0.20254 c -0.3188,0.17663 -0.18096,0.7849 -0.0136,1.01579 0.095,0.13099 0.27851,0.26108 0.445,0.1736 0.3406,-0.17895 0.21025,-0.77047 0.0361,-1.01579 -0.10014,-0.14106 -0.29093,-0.27146 -0.46755,-0.1736 m -3.25646,0.0789 c -0.38207,0.14645 -0.17489,0.84614 0.23109,0.67531 0.3704,-0.15586 0.16036,-0.82537 -0.23109,-0.67531 m -5.14191,0.0365 0.029,0.0872 -0.029,-0.0872 m -7.84337,0.66814 v 0.0872 h 0.029 l -0.029,-0.0872 m 5.31606,0 v 0.0581 l 0.0581,-0.0581 h -0.0581 m 9.85051,0.0506 c -0.37278,0.15435 -0.21919,1.052 0.22957,0.89039 0.42148,-0.15179 0.22965,-1.08053 -0.22957,-0.89039 m -15.19562,0.0656 v 0.1162 h 0.029 l -0.029,-0.1162 m 0.95863,0 c -0.12365,0.13775 -0.41199,0.62806 -0.11619,0.72624 0.12078,-0.20086 0.30025,-0.51456 0.11619,-0.72624 m 17.83642,0.0581 0.0704,1.10388 0.16197,0.40669 c 0.0318,-0.40319 0.0954,-1.20872 -0.2324,-1.51057 m -0.37764,0.029 c -0.19168,0.33722 -0.13803,0.80006 -0.0364,1.16198 0.0263,0.0936 0.0975,0.37181 0.23451,0.35088 0.13303,-0.0203 0.14762,-0.30989 0.15009,-0.40898 0.009,-0.36539 -0.0323,-0.86917 -0.34817,-1.10388 m -18.44646,0.0581 v 0.1162 h 0.029 l -0.029,-0.1162 m 0.46479,0.029 c -0.14048,0.19906 -0.32901,0.6447 -0.1743,0.87148 0.13455,-0.23139 0.28579,-0.60581 0.1743,-0.87148 m 1.77202,0.49384 c 0.15237,-0.0752 0.17285,-0.18864 0.1743,-0.34859 -0.17247,0.0496 -0.22179,0.18284 -0.1743,0.34859 m 15.54698,-0.20126 c -0.29694,0.14999 -0.18621,0.83036 -0.0995,1.07275 0.0429,0.1198 0.17269,0.3034 0.32334,0.23031 0.31647,-0.15353 0.21679,-0.79499 0.10942,-1.0437 -0.0503,-0.11656 -0.17151,-0.34109 -0.3333,-0.25936 m -8.72033,0.0269 -0.029,0.1162 0.029,-0.1162 m 2.51086,0.059 c -0.13454,0.0894 -0.0499,0.38727 0.12603,0.28819 0.16867,-0.095 0.0553,-0.40869 -0.12603,-0.28819 m -11.48717,0.0281 -0.14525,0.87148 c -0.0927,0.003 -0.21677,0.0142 -0.19241,0.14279 0.0331,0.17494 0.31062,0.25943 0.38215,0.42991 0.0598,0.14253 -0.007,0.42313 0.0136,0.58928 0.11429,-0.0869 0.11342,-0.27173 0.1162,-0.40669 h 0.029 c 0.62849,1.45854 1.26035,2.91955 1.87589,4.38648 0.15404,0.36711 0.299,0.73813 0.45623,1.10388 0.0468,0.1088 0.0913,0.33436 0.20662,0.38917 0.69363,0.32979 0.84157,-0.64415 1.01689,-1.08635 0.55731,-1.40565 1.02881,-2.85836 1.64023,-4.24124 0.12504,-0.28281 0.26918,-0.58065 0.47752,-0.81222 0.15128,-0.16813 0.38976,-0.21496 0.39798,-0.46596 h -1.42343 c 0.007,0.21407 0.15449,0.20972 0.28052,0.35165 0.10677,0.12024 0.13113,0.27713 0.12501,0.43269 -0.0222,0.56354 -0.3334,1.14101 -0.53917,1.65582 -0.37018,0.92614 -0.72577,1.85889 -1.08644,2.78876 -0.53176,-0.93439 -0.86047,-2.0333 -1.28634,-3.02115 -0.21435,-0.4972 -0.60346,-1.11354 -0.65482,-1.65583 -0.024,-0.25355 0.2243,-0.33348 0.22723,-0.58099 h -2.00441 c 0.0513,-0.24851 0.18937,-0.62786 0.0871,-0.87148 m 3.1664,0.29049 -0.029,0.1743 0.0872,-0.1743 h -0.0581 m 10.77738,0.69719 v 0.029 c -1.19419,0.28365 -1.77691,1.86217 -0.97419,2.81738 0.72071,0.85762 2.09138,0.83269 3.00766,1.37891 0.53313,0.31781 0.89094,0.91807 0.58651,1.52647 -0.70264,1.40422 -2.57717,0.43516 -3.27025,-0.40669 -0.21282,-0.2585 -0.39577,-0.54415 -0.54784,-0.84244 -0.0302,-0.0592 -0.10789,-0.27381 -0.20904,-0.20084 -0.0935,0.0675 -0.0197,0.36105 -0.0151,0.46229 0.0165,0.36455 -0.0553,1.19298 0.28937,1.3853 1.09911,0.6132 2.53618,0.65966 3.68927,0.21242 l -0.20334,0.2905 c 0.31813,-0.024 0.64895,-0.61991 0.87148,-0.84244 l -0.49384,0.78434 c 0.29442,-0.20797 0.55217,-0.58956 0.66814,-0.92959 l -0.1743,0.14525 c 0.43268,-0.78024 0.65458,-1.82768 -0.0883,-2.52227 -0.27922,-0.26107 -0.65688,-0.43563 -1.01559,-0.55698 0.15605,-0.32427 -0.13734,-0.41655 -0.1743,-0.0581 -0.43273,-0.19182 -0.90224,-0.29797 -1.33628,-0.48983 -0.33878,-0.14976 -0.72342,-0.34197 -0.91933,-0.67215 -0.44196,-0.74485 0.27425,-1.37257 0.97743,-1.47281 0.78266,-0.11157 1.52884,0.30888 2.02072,0.89182 0.12285,0.14559 0.38236,0.407 0.3858,0.61004 0.003,0.1858 -0.15582,0.34629 -0.13485,0.55194 0.0107,0.1048 0.0837,0.30095 0.22124,0.21316 0.17972,-0.11473 0.18666,-0.40449 0.17851,-0.59081 -0.0182,-0.41632 -0.0556,-0.83168 -0.057,-1.24913 -6.5e-4,-0.24211 0.0349,-0.56222 -0.0781,-0.7842 -0.22614,-0.44417 -0.49699,0.0422 -0.5029,0.31941 -0.86417,-0.22358 -1.81249,-0.24226 -2.67255,0 0.124,-0.14314 0.21157,-0.71963 -0.1422,-0.54549 -0.26482,0.13036 -0.15662,0.5251 0.11314,0.54549 m -44.503898,-0.40669 0.213859,0.29354 0.158831,0.46175 0.0049,2.9921 -0.01244,2.38206 -0.122699,0.40656 -0.242505,0.31968 h 1.597724 c -0.02334,-0.14155 -0.128747,-0.16611 -0.21693,-0.26692 -0.09688,-0.11074 -0.133507,-0.25865 -0.152308,-0.40122 -0.185086,-1.40344 -0.03745,-2.91281 -0.03745,-4.32838 0,-0.46567 -0.157764,-1.52191 0.406693,-1.71393 v -0.14524 h -1.59775 m 37.125323,4.67702 c 0,0.42753 0.0552,0.85237 0.0846,1.27818 0.009,0.13742 -0.0239,0.38727 0.0782,0.49517 0.27715,0.29281 0.91012,0.41501 1.2897,0.49241 1.353,0.27586 3.17455,0.0939 3.55408,-1.51047 0.0483,-0.20396 0.0484,-0.40172 0.0481,-0.61004 -0.003,-1.57882 -1.95901,-1.79046 -3.07925,-2.27819 -0.6296,-0.27412 -1.33172,-0.9399 -0.7912,-1.64236 0.72208,-0.93839 2.16248,-0.38797 2.82424,0.28936 0.20758,0.21247 0.45261,0.83236 0.75572,0.84243 0,-0.36111 0.005,-0.74549 -0.0374,-1.10388 -0.0114,-0.0966 0.009,-0.27811 -0.0506,-0.35725 -0.0585,-0.078 -0.20213,-0.0948 -0.28969,-0.11978 -0.27737,-0.0791 -0.5571,-0.1262 -0.84244,-0.16585 -1.17542,-0.16333 -2.82065,-0.0719 -3.32722,1.22387 -0.0907,0.23212 -0.13175,0.50752 -0.10849,0.75529 0.13264,1.41298 1.53205,1.64275 2.65138,2.04241 0.47581,0.1699 1.03696,0.39109 1.28849,0.86254 0.35166,0.65915 -0.0834,1.41362 -0.7656,1.6051 -0.54612,0.15328 -1.14689,-0.003 -1.62678,-0.27718 -0.49225,-0.28161 -0.88909,-0.73742 -1.18948,-1.21172 -0.11857,-0.1872 -0.22108,-0.59054 -0.46634,-0.61004 m 12.37511,-3.97978 c -0.16417,0.43757 -0.17188,1.05421 -0.0871,1.51057 h 0.029 c 0.089,-0.38919 0.30373,-1.15151 0.0581,-1.51057 m -26.72558,1.39437 c 0.15062,0 0.44289,-0.0561 0.57175,0.0299 0.0945,0.0631 0.0673,0.22169 0.0673,0.31874 v 0.90053 2.29492 c 0,0.38256 0.0403,0.85511 0.34977,1.12338 0.49055,0.42522 1.21882,0.13512 1.65466,-0.21718 0.15034,-0.12152 0.48736,-0.34497 0.40669,-0.55761 h -0.029 c -0.49763,0.48736 -1.41469,0.80379 -1.60331,-0.14525 -0.0805,-0.40505 -0.0235,-0.86594 -0.0235,-1.27817 v -2.46922 h 1.10389 c 0.14518,0 0.31475,0.0403 0.37764,-0.11619 h -1.48152 v -1.22008 c -0.41,0.0309 -0.81184,0.66368 -1.10389,0.92129 -0.1388,0.12243 -0.27578,0.21976 -0.29049,0.41498 m 23.53284,-1.30514 c -0.25781,0.12421 -0.18327,0.78389 0.10811,0.63124 0.22836,-0.11963 0.18363,-0.7718 -0.10811,-0.63124 m -5.75452,0.0269 -0.029,0.1162 0.0872,-0.1162 h -0.0581 m 8.48247,1.48153 c 0.30931,-0.1608 0.30169,-0.7769 0.26595,-1.07483 -0.0111,-0.0921 -0.009,-0.29208 -0.10531,-0.34349 -0.12693,-0.0676 -0.1956,0.24074 -0.20971,0.31444 -0.068,0.35521 -0.0779,0.76341 0.0491,1.10388 m -18.62076,-1.19103 0.029,0.72624 h 0.029 c 0,-0.20483 0.0686,-0.55903 -0.0581,-0.72624 m 12.50345,0.0304 c -0.0956,0.0629 -0.0636,0.27055 0.0689,0.19947 0.12358,-0.0663 0.0661,-0.28838 -0.0689,-0.19947 m 5.59522,0.14639 c -0.27837,0.12597 -0.25069,0.65187 -0.23049,0.89802 0.008,0.10141 0.052,0.3177 0.19918,0.26724 0.28813,-0.0988 0.28727,-0.6682 0.25752,-0.90632 -0.0133,-0.10657 -0.0763,-0.32677 -0.22621,-0.25894 m -15.57136,0.25894 v 0.0872 l 0.0581,-0.0872 h -0.0581 m 12.05816,0.26655 c -0.1293,0.0552 -0.14504,0.38009 0.0246,0.30933 0.1351,-0.0564 0.14216,-0.38055 -0.0246,-0.30933 m -42.589185,4.90428 v 0.14525 h 1.539626 c -0.03512,-0.21595 -0.284715,-0.31442 -0.335437,-0.55194 -0.165068,-0.77301 -0.04221,-1.68001 -0.04221,-2.46921 0,-0.23597 -0.08674,-0.68736 0.02985,-0.8955 0.09363,-0.16714 0.361711,-0.28852 0.522085,-0.38235 0.671332,-0.39277 1.688971,-0.55668 2.02681,0.34826 0.183383,0.49122 0.122856,1.05468 0.122856,1.56867 0,0.58399 0.07481,1.22751 -0.04848,1.80108 -0.05466,0.25426 -0.322197,0.36259 -0.35821,0.58099 h 1.568675 l -0.248961,-0.31999 -0.126083,-0.4353 -0.03165,-2.06252 -0.0581,-1.10388 c 0.695136,-0.29386 1.547141,-1.17183 2.323852,-0.46174 0.363191,0.33203 0.406805,0.84126 0.406805,1.30418 v 1.88822 c 0,0.35679 0.03575,0.90515 -0.377644,1.04578 v 0.14525 h 1.539626 c -0.02512,-0.15444 -0.156578,-0.19926 -0.242505,-0.31999 -0.09618,-0.13515 -0.121383,-0.33141 -0.132539,-0.4934 -0.0618,-0.89728 0.03276,-1.80404 -0.02905,-2.70161 -0.05039,-0.73173 -0.349217,-1.31669 -1.135532,-1.42721 -0.210109,-0.0295 -0.400255,-0.0178 -0.61004,0.008 -0.284007,0.0354 -0.557318,0.14044 -0.813388,0.26443 -0.341322,0.16526 -0.671895,0.38348 -0.958635,0.63158 -0.09658,-0.5609 -0.582044,-0.84257 -1.103882,-0.90504 -0.862145,-0.10323 -1.595245,0.36521 -2.265865,0.84694 0,-0.17527 0.08792,-0.69968 -0.04658,-0.82375 -0.07558,-0.0697 -0.197148,-0.001 -0.272968,0.0327 -0.166066,0.0748 -0.770839,0.23352 -0.820605,0.4183 -0.02875,0.10678 0.145821,0.19053 0.202496,0.25777 0.101097,0.11996 0.126433,0.28339 0.145,0.43449 0.109677,0.89257 0.0087,1.85994 0.0083,2.75971 -1.1e-4,0.32098 -0.02232,0.75061 -0.377644,0.87148 m 9.063458,2.81781 h 1.539627 c -0.01945,-0.24482 -0.319318,-0.40767 -0.364891,-0.69719 -0.116698,-0.74139 -0.0418,-1.54518 -0.0418,-2.29491 0.363901,0.1699 0.69781,0.34554 1.103883,0.39829 1.179997,0.15326 2.309963,-0.51602 2.69932,-1.64742 0.465945,-1.35396 -0.115688,-3.4711 -1.856883,-3.39765 -0.771565,0.0326 -1.285617,0.42685 -1.94632,0.75414 0,-0.13474 0.07464,-0.64018 -0.04658,-0.71801 -0.06939,-0.0446 -0.179373,0.0177 -0.243918,0.0458 -0.16424,0.0715 -0.771745,0.235 -0.820605,0.41569 -0.03035,0.11223 0.274802,0.34412 0.311812,0.48888 0.115917,0.45341 0.044,0.98733 0.044,1.45248 0,1.40315 0.128022,2.87411 -0.0049,4.27029 -0.01738,0.18253 -0.03303,0.38837 -0.123393,0.55183 -0.0825,0.14924 -0.235306,0.19621 -0.249319,0.37775 m 9.557301,-3.54404 c 0,0.23213 -0.071,0.6167 0.106,0.80079 0.17586,0.18293 0.8143,0.0707 1.05599,0.0707 -0.0251,-0.15444 -0.15658,-0.19926 -0.24251,-0.31999 -0.1007,-0.14149 -0.12655,-0.35271 -0.13399,-0.52245 -0.0419,-0.95462 -10e-4,-1.92026 -10e-4,-2.8759 0,-0.31292 0.10925,-0.87184 -0.0175,-1.15757 -0.0525,-0.1182 -0.18526,-0.0578 -0.27297,-0.021 -0.19406,0.0814 -0.73676,0.21882 -0.83993,0.40524 -0.0602,0.10881 0.10832,0.19171 0.16868,0.25349 0.12128,0.12413 0.16295,0.29255 0.17481,0.46176 0.0443,0.63266 0.003,1.28295 0.003,1.91727 0,0.21955 0.0696,0.58532 -0.0299,0.78434 -0.2347,0.46941 -0.985735,0.79538 -1.480724,0.83739 -0.547319,0.0465 -0.945093,-0.36142 -1.051477,-0.86644 -0.193678,-0.91942 -0.08146,-1.93967 -0.08146,-2.87591 0,-0.2366 0.09129,-0.70647 -0.01753,-0.91687 -0.05528,-0.10688 -0.197222,-0.0261 -0.272967,0.007 -0.231744,0.10288 -0.649542,0.19544 -0.824348,0.38067 -0.10647,0.11281 0.208081,0.28663 0.259563,0.38358 0.171624,0.3232 0.09999,0.80879 0.09999,1.16187 0,0.74306 -0.145231,1.66688 0.197833,2.35302 0.696615,1.39322 2.427151,0.51237 3.20097,-0.26145 m 9.87684,-0.37765 v -0.029 l -0.11619,-0.0872 c -0.81498,1.06668 -2.544,1.15258 -3.37267,0.0581 -0.44077,-0.58217 -0.43472,-1.22926 -0.43282,-1.91727 h 3.83454 c -0.003,-1.10757 -1.02713,-1.78717 -2.06252,-1.74183 -0.83587,0.0366 -1.61063,0.45383 -2.06647,1.16084 -1.01613,1.57604 -0.12099,3.90731 1.89217,3.92155 1.01296,0.007 1.70164,-0.6506 2.32396,-1.36519 m -0.87148,-2.09157 h -2.03348 l -0.98768,-0.029 c 0.13869,-0.49237 0.32016,-0.96067 0.78434,-1.23532 0.97836,-0.57889 2.10447,0.23948 2.23681,1.26437 m -16.209644,-1.26976 c 1.595248,-0.20731 2.177008,1.71786 2.012599,2.98369 -0.101572,0.78203 -0.472133,1.42775 -1.31541,1.53131 -0.764201,0.0939 -1.658322,-0.49499 -1.861277,-1.24081 -0.128468,-0.4721 -0.05599,-1.02556 -0.05599,-1.51058 0,-0.29302 -0.121466,-0.94363 0.04658,-1.18832 0.220377,-0.32089 0.804322,-0.52732 1.173503,-0.57529 m 27.538969,0.19494 v 0.0581 h 0.0581 v -0.0581 h -0.0581 m -10.66118,0.029 c 0,0.16791 -0.0312,0.4399 0.11619,0.55194 l -0.11619,-0.55194 m 18.6498,0.0581 c -0.1626,0.42152 -0.28382,0.88432 -0.31954,1.33628 h 0.029 c 0.1374,-0.33494 0.44155,-0.97629 0.29049,-1.33628 m -0.31954,0.1743 c -0.22358,0.33902 -0.43999,0.92882 -0.31955,1.33628 0.3657,-0.30302 0.39624,-0.90334 0.37765,-1.33628 h -0.0581 m -0.92959,1.51058 c 0.40009,-0.0619 0.48852,-0.72868 0.4067,-1.04579 -0.3977,0.11194 -0.44941,0.70787 -0.4067,1.04579 m 0.78434,0.0581 -0.46479,1.07483 h 0.029 c 0.14086,-0.23885 0.51902,-0.79322 0.43574,-1.07483 m -0.29049,0.20334 c -0.21943,0.33319 -0.47588,0.7209 -0.49384,1.13294 0.3305,-0.24398 0.47693,-0.74636 0.55194,-1.13294 h -0.0581 m -2.12062,0.20335 -0.0581,0.1743 c 0.0741,-0.0495 0.0995,-0.0933 0.0581,-0.1743 m 0.66814,0.90054 c -0.14042,0.14715 -0.24324,0.28685 -0.26144,0.49384 0.17917,-0.0507 0.38626,-0.31366 0.26144,-0.49384 m -1.04578,0.69719 -0.0871,0.17429 z"
         id="path1" /><rect
         style="fill:url(#linearGradient2);fill-opacity:1;stroke-width:0.264583"
         id="rect1"
         width="0.89367372"
         height="15.788236"
         x="96.473274"
         y="169.33688"
         ry="0.44683686" /><text
         xml:space="preserve"
         style="font-size:1.41111px;font-family:Pristina;-inkscape-font-specification:Pristina;letter-spacing:-0.0132292px;word-spacing:-0.0132292px;fill:#054cae;fill-opacity:1;stroke-width:0.264583"
         x="100.42207"
         y="180.1723"
         id="text3"><tspan
           sodipodi:role="line"
           id="tspan3"
           x="100.42207"
           y="180.1723"
           style="font-style:normal;font-variant:normal;font-weight:normal;font-stretch:normal;font-family:'Segoe UI';-inkscape-font-specification:'Segoe UI';fill:#054cae;fill-opacity:1;stroke-width:0.264583">Developed By</tspan></text><text
         xml:space="preserve"
         style="font-size:1.88411px;font-family:Pristina;-inkscape-font-specification:Pristina;letter-spacing:-0.0176636px;word-spacing:-0.0176636px;fill:#054cae;fill-opacity:1;stroke-width:0.35327"
         x="100.5424"
         y="182.23378"
         id="text4"><tspan
           sodipodi:role="line"
           id="tspan4"
           x="100.5424"
           y="182.23378"
           style="font-style:normal;font-variant:normal;font-weight:bold;font-stretch:normal;font-family:'Segoe UI';-inkscape-font-specification:'Segoe UI';fill:#054cae;fill-opacity:1;stroke-width:0.35327">Vartul Shrivastava and Prof. Shekhar Shukla</tspan></text><text
         xml:space="preserve"
         style="font-size:2.11667px;font-family:Pristina;-inkscape-font-specification:Pristina;letter-spacing:-0.0132292px;word-spacing:-0.0132292px;fill:#054cae;fill-opacity:1;stroke-width:0.264583"
         x="100.52887"
         y="174.58551"
         id="text5"><tspan
           sodipodi:role="line"
           id="tspan5"
           x="100.52887"
           y="174.58551"
           style="font-style:normal;font-variant:normal;font-weight:normal;font-stretch:normal;font-size:2.11667px;font-family:'Segoe UI';-inkscape-font-specification:'Segoe UI';fill:#054cae;fill-opacity:1;stroke-width:0.264583">A GUI-based Visualizer and Summarizer Suite </tspan><tspan
           sodipodi:role="line"
           x="100.52887"
           y="177.50041"
           style="font-style:normal;font-variant:normal;font-weight:normal;font-stretch:normal;font-size:2.11667px;font-family:'Segoe UI';-inkscape-font-specification:'Segoe UI';fill:#054cae;fill-opacity:1;stroke-width:0.264583"
           id="tspan9">for Data Imputation with Gen-AI enabled Interpretation</tspan></text><text
         xml:space="preserve"
         style="font-size:1.41111px;font-family:Pristina;-inkscape-font-specification:Pristina;letter-spacing:-0.0132292px;word-spacing:-0.0132292px;fill:#054cae;fill-opacity:1;stroke-width:0.264583"
         x="100.42207"
         y="171.64833"
         id="text8"><tspan
           sodipodi:role="line"
           id="tspan8"
           x="100.42207"
           y="171.64833"
           style="font-style:normal;font-variant:normal;font-weight:normal;font-stretch:normal;font-family:'Segoe UI';-inkscape-font-specification:'Segoe UI';fill:#054cae;fill-opacity:1;stroke-width:0.264583">Part of <tspan
   style="font-weight:bold"
   id="tspan7">VSSToolkits</tspan></tspan></text></g></g></svg>
